<svg id="SvgjsSvg1006" width="100%" height="100%" xmlns="http://www.w3.org/2000/svg" version="1.1" xmlns:xlink="http://www.w3.org/1999/xlink" xmlns:svgjs="http://svgjs.com/svgjs" viewBox="0 0 1582 40"><defs id="SvgjsDefs1007"><rect id="SvgjsRect1008" width="10" height="10" fill="#5a5a5a"></rect></defs><g id="SvgjsG1660"><use id="SvgjsUse1661" xlink:href="#SvgjsRect1008" x="10" y="10"></use><use id="SvgjsUse1662" xlink:href="#SvgjsRect1008" x="26" y="20"></use><use id="SvgjsUse1663" xlink:href="#SvgjsRect1008" x="42" y="10"></use><use id="SvgjsUse1664" xlink:href="#SvgjsRect1008" x="58" y="20"></use><use id="SvgjsUse1665" xlink:href="#SvgjsRect1008" x="74" y="10"></use><use id="SvgjsUse1666" xlink:href="#SvgjsRect1008" x="90" y="20"></use><use id="SvgjsUse1667" xlink:href="#SvgjsRect1008" x="106" y="20"></use><use id="SvgjsUse1668" xlink:href="#SvgjsRect1008" x="122" y="10"></use><use id="SvgjsUse1669" xlink:href="#SvgjsRect1008" x="138" y="10"></use><use id="SvgjsUse1670" xlink:href="#SvgjsRect1008" x="154" y="20"></use><use id="SvgjsUse1671" xlink:href="#SvgjsRect1008" x="170" y="10"></use><use id="SvgjsUse1672" xlink:href="#SvgjsRect1008" x="186" y="20"></use><use id="SvgjsUse1673" xlink:href="#SvgjsRect1008" x="202" y="20"></use><use id="SvgjsUse1674" xlink:href="#SvgjsRect1008" x="218" y="20"></use><use id="SvgjsUse1675" xlink:href="#SvgjsRect1008" x="234" y="10"></use><use id="SvgjsUse1676" xlink:href="#SvgjsRect1008" x="250" y="10"></use><use id="SvgjsUse1677" xlink:href="#SvgjsRect1008" x="266" y="20"></use><use id="SvgjsUse1678" xlink:href="#SvgjsRect1008" x="282" y="20"></use><use id="SvgjsUse1679" xlink:href="#SvgjsRect1008" x="298" y="10"></use><use id="SvgjsUse1680" xlink:href="#SvgjsRect1008" x="314" y="20"></use><use id="SvgjsUse1681" xlink:href="#SvgjsRect1008" x="330" y="10"></use><use id="SvgjsUse1682" xlink:href="#SvgjsRect1008" x="346" y="20"></use><use id="SvgjsUse1683" xlink:href="#SvgjsRect1008" x="362" y="10"></use><use id="SvgjsUse1684" xlink:href="#SvgjsRect1008" x="378" y="20"></use><use id="SvgjsUse1685" xlink:href="#SvgjsRect1008" x="394" y="20"></use><use id="SvgjsUse1686" xlink:href="#SvgjsRect1008" x="410" y="20"></use><use id="SvgjsUse1687" xlink:href="#SvgjsRect1008" x="426" y="20"></use><use id="SvgjsUse1688" xlink:href="#SvgjsRect1008" x="442" y="20"></use><use id="SvgjsUse1689" xlink:href="#SvgjsRect1008" x="458" y="10"></use><use id="SvgjsUse1690" xlink:href="#SvgjsRect1008" x="474" y="20"></use><use id="SvgjsUse1691" xlink:href="#SvgjsRect1008" x="490" y="20"></use><use id="SvgjsUse1692" xlink:href="#SvgjsRect1008" x="506" y="20"></use><use id="SvgjsUse1693" xlink:href="#SvgjsRect1008" x="522" y="20"></use><use id="SvgjsUse1694" xlink:href="#SvgjsRect1008" x="538" y="10"></use><use id="SvgjsUse1695" xlink:href="#SvgjsRect1008" x="554" y="10"></use><use id="SvgjsUse1696" xlink:href="#SvgjsRect1008" x="570" y="10"></use><use id="SvgjsUse1697" xlink:href="#SvgjsRect1008" x="586" y="10"></use><use id="SvgjsUse1698" xlink:href="#SvgjsRect1008" x="602" y="20"></use><use id="SvgjsUse1699" xlink:href="#SvgjsRect1008" x="618" y="20"></use><use id="SvgjsUse1700" xlink:href="#SvgjsRect1008" x="634" y="20"></use><use id="SvgjsUse1701" xlink:href="#SvgjsRect1008" x="650" y="20"></use><use id="SvgjsUse1702" xlink:href="#SvgjsRect1008" x="666" y="10"></use><use id="SvgjsUse1703" xlink:href="#SvgjsRect1008" x="682" y="10"></use><use id="SvgjsUse1704" xlink:href="#SvgjsRect1008" x="698" y="10"></use><use id="SvgjsUse1705" xlink:href="#SvgjsRect1008" x="714" y="10"></use><use id="SvgjsUse1706" xlink:href="#SvgjsRect1008" x="730" y="20"></use><use id="SvgjsUse1707" xlink:href="#SvgjsRect1008" x="746" y="10"></use><use id="SvgjsUse1708" xlink:href="#SvgjsRect1008" x="762" y="20"></use><use id="SvgjsUse1709" xlink:href="#SvgjsRect1008" x="778" y="20"></use><use id="SvgjsUse1710" xlink:href="#SvgjsRect1008" x="794" y="10"></use><use id="SvgjsUse1711" xlink:href="#SvgjsRect1008" x="810" y="10"></use><use id="SvgjsUse1712" xlink:href="#SvgjsRect1008" x="826" y="20"></use><use id="SvgjsUse1713" xlink:href="#SvgjsRect1008" x="842" y="20"></use><use id="SvgjsUse1714" xlink:href="#SvgjsRect1008" x="858" y="20"></use><use id="SvgjsUse1715" xlink:href="#SvgjsRect1008" x="874" y="10"></use><use id="SvgjsUse1716" xlink:href="#SvgjsRect1008" x="890" y="10"></use><use id="SvgjsUse1717" xlink:href="#SvgjsRect1008" x="906" y="10"></use><use id="SvgjsUse1718" xlink:href="#SvgjsRect1008" x="922" y="10"></use><use id="SvgjsUse1719" xlink:href="#SvgjsRect1008" x="938" y="20"></use><use id="SvgjsUse1720" xlink:href="#SvgjsRect1008" x="954" y="10"></use><use id="SvgjsUse1721" xlink:href="#SvgjsRect1008" x="970" y="20"></use><use id="SvgjsUse1722" xlink:href="#SvgjsRect1008" x="986" y="20"></use><use id="SvgjsUse1723" xlink:href="#SvgjsRect1008" x="1002" y="20"></use><use id="SvgjsUse1724" xlink:href="#SvgjsRect1008" x="1018" y="20"></use><use id="SvgjsUse1725" xlink:href="#SvgjsRect1008" x="1034" y="10"></use><use id="SvgjsUse1726" xlink:href="#SvgjsRect1008" x="1050" y="20"></use><use id="SvgjsUse1727" xlink:href="#SvgjsRect1008" x="1066" y="20"></use><use id="SvgjsUse1728" xlink:href="#SvgjsRect1008" x="1082" y="20"></use><use id="SvgjsUse1729" xlink:href="#SvgjsRect1008" x="1098" y="20"></use><use id="SvgjsUse1730" xlink:href="#SvgjsRect1008" x="1114" y="20"></use><use id="SvgjsUse1731" xlink:href="#SvgjsRect1008" x="1130" y="20"></use><use id="SvgjsUse1732" xlink:href="#SvgjsRect1008" x="1146" y="10"></use><use id="SvgjsUse1733" xlink:href="#SvgjsRect1008" x="1162" y="10"></use><use id="SvgjsUse1734" xlink:href="#SvgjsRect1008" x="1178" y="20"></use><use id="SvgjsUse1735" xlink:href="#SvgjsRect1008" x="1194" y="20"></use><use id="SvgjsUse1736" xlink:href="#SvgjsRect1008" x="1210" y="10"></use><use id="SvgjsUse1737" xlink:href="#SvgjsRect1008" x="1226" y="20"></use><use id="SvgjsUse1738" xlink:href="#SvgjsRect1008" x="1242" y="20"></use><use id="SvgjsUse1739" xlink:href="#SvgjsRect1008" x="1258" y="10"></use><use id="SvgjsUse1740" xlink:href="#SvgjsRect1008" x="1274" y="10"></use><use id="SvgjsUse1741" xlink:href="#SvgjsRect1008" x="1290" y="20"></use><use id="SvgjsUse1742" xlink:href="#SvgjsRect1008" x="1306" y="20"></use><use id="SvgjsUse1743" xlink:href="#SvgjsRect1008" x="1322" y="20"></use><use id="SvgjsUse1744" xlink:href="#SvgjsRect1008" x="1338" y="20"></use><use id="SvgjsUse1745" xlink:href="#SvgjsRect1008" x="1354" y="20"></use><use id="SvgjsUse1746" xlink:href="#SvgjsRect1008" x="1370" y="10"></use><use id="SvgjsUse1747" xlink:href="#SvgjsRect1008" x="1386" y="10"></use><use id="SvgjsUse1748" xlink:href="#SvgjsRect1008" x="1402" y="20"></use><use id="SvgjsUse1749" xlink:href="#SvgjsRect1008" x="1418" y="20"></use><use id="SvgjsUse1750" xlink:href="#SvgjsRect1008" x="1434" y="10"></use><use id="SvgjsUse1751" xlink:href="#SvgjsRect1008" x="1450" y="20"></use><use id="SvgjsUse1752" xlink:href="#SvgjsRect1008" x="1466" y="20"></use><use id="SvgjsUse1753" xlink:href="#SvgjsRect1008" x="1482" y="10"></use><use id="SvgjsUse1754" xlink:href="#SvgjsRect1008" x="1498" y="10"></use><use id="SvgjsUse1755" xlink:href="#SvgjsRect1008" x="1514" y="20"></use><use id="SvgjsUse1756" xlink:href="#SvgjsRect1008" x="1530" y="10"></use><use id="SvgjsUse1757" xlink:href="#SvgjsRect1008" x="1546" y="20"></use><use id="SvgjsUse1758" xlink:href="#SvgjsRect1008" x="1562" y="10"></use></g></svg>